<svg width="25" height="24" viewBox="0 0 25 24" fill="none" xmlns="http://www.w3.org/2000/svg">
                            <path d="M0.0560303 11.5C0.0560303 6.07885 0.0560303 3.36827 1.74017 1.68413C3.4243 0 6.13488 0 11.556 0H12.556C17.9772 0 20.6878 0 22.3719 1.68413C24.056 3.36827 24.056 6.07885 24.056 11.5V12.5C24.056 17.9212 24.056 20.6318 22.3719 22.3158C20.6878 24 17.9772 24 12.556 24H11.556C6.13488 24 3.4243 24 1.74017 22.3158C0.0560303 20.6318 0.0560303 17.9212 0.0560303 12.5L0.0560303 11.5Z" fill="currentColor"></path>
                            <path fill-rule="evenodd" clip-rule="evenodd" d="M6.55648 7.5H4.80608C4.30596 7.5 4.20593 7.7354 4.20593 7.9949C4.20593 8.45845 4.79936 10.7574 6.96903 13.7979C8.41548 15.8744 10.4534 17 12.3078 17C13.4205 17 13.5581 16.75 13.5581 16.3194V14.75C13.5581 14.25 13.6635 14.1502 14.0158 14.1502C14.2755 14.1502 14.7205 14.28 15.759 15.2811C16.9459 16.4677 17.1415 17 17.8091 17H19.5595C20.0596 17 20.3097 16.75 20.1654 16.2567C20.0076 15.765 19.4409 15.0515 18.689 14.2058C18.281 13.7238 17.6691 13.2047 17.4836 12.9451C17.224 12.6114 17.2982 12.463 17.4836 12.1664C17.4836 12.1664 19.6162 9.16295 19.8388 8.1433C19.95 7.77245 19.8388 7.5 19.3094 7.5H17.559C17.114 7.5 16.9088 7.7354 16.7975 7.9949C16.7975 7.9949 15.9074 10.1641 14.6464 11.5731C14.2384 11.981 14.0529 12.1108 13.8304 12.1108C13.7191 12.1108 13.5581 11.981 13.5581 11.6103V8.1433C13.5581 7.6983 13.4289 7.5 13.058 7.5H10.3073C10.0292 7.5 9.86193 7.7065 9.86193 7.90225C9.86193 8.32405 10.4924 8.42135 10.5574 9.6079V12.185C10.5574 12.75 10.4553 12.8525 10.2328 12.8525C9.63943 12.8525 8.19598 10.6736 7.33988 8.18035C7.17213 7.69575 7.00383 7.5 6.55648 7.5Z" fill="white"></path>
                        </svg>